<?xml version="1.0" encoding="UTF-8"?>
<svg id="Camada_1" data-name="Camada 1" xmlns="http://www.w3.org/2000/svg" viewBox="0 0 3350.04 3234.06">
  <defs>
    <style>
      .cls-1 {
        fill: #fff;
      }
    </style>
  </defs>
  <path class="cls-1" d="M1377.22,1537.41l767.57-3.06c69.8-.28,135.17-14.75,192.9-51.78,74.84-48.01,113.92-137.63,105.87-224.49-4.08-44.06-27.5-78.73-65.58-97.6-31.43-15.38-62.53-22.1-99.53-22.11l-970.09-.27-249.53,535.47-313.94,671.98-500.08.03,87.83-185.77,287.79-607.38,173.67-368.61-155.12-172.24c-38.74-43.01-74.91-83.86-117.72-125.41l2047.63.54c59.62.02,114.77,14.11,167.18,35.03,49.96,19.94,91.97,51.96,119.74,97.9,31.06,51.38,46.8,109.32,46.88,170.57.13,113.03-26.57,223-80.23,320.83-118.31,219.18-319.37,267.49-554.23,278.03l441.58,556.16-481.23.68-221.22-269.9-231.83-283.11-189.53-.76-208.74-254.75Z"/>
  <path class="cls-1" d="M1639.22,1850.81l105.09-.02,356.48,431.84,100.06,121.52,633.26-.7-449.53-565.82c191.19-25.22,347.52-80.46,463.22-245.6,64.99-92.77,97.41-200.86,110.69-314.14,17.9-152.73-12.03-320.14-162.65-393.68-63.25-30.88-133.26-54.48-207.99-54.52l-2115.77-1.08c-27.99-24.75-45.12-50.45-74.94-80.28l2169.47.35c85.44.01,166.91,19.47,243.05,52.74,160.11,69.95,234.61,224.11,234.93,393.62.42,221.57-78.93,430.45-251.94,572.16-77.65,61.75-164.74,99.74-260.58,126.62l466.71,591.1-835.79.82-499.67-604.17c-8.91-10.77-18.39-14.51-24.08-30.74Z"/>
  <path class="cls-1" d="M1117.39,1900.14l-270.84,584.78-666.86.3c8.88-28.95,24.6-52.29,37.49-81.21h575.54s560.24-1207.33,560.24-1207.33l952.21.48c45.09,4.26,75.47,37.01,71.21,81.71l-972.26-.05-286.72,621.31Z"/>
</svg>