<?xml version="1.0" encoding="UTF-8"?>
<svg id="Camada_1" data-name="Camada 1" xmlns="http://www.w3.org/2000/svg" viewBox="0 0 5445.58 2552.37">
  <defs>
    <style>
      .cls-1 {
        fill: #fff;
      }
    </style>
  </defs>
  <g>
    <path class="cls-1" d="M1505.5,1164.47l767.57-3.06c69.8-.28,135.17-14.75,192.9-51.78,74.84-48.01,113.92-137.63,105.87-224.49-4.08-44.06-27.5-78.73-65.58-97.6-31.43-15.38-62.53-22.1-99.53-22.11l-970.09-.27-249.53,535.47-313.94,671.98-500.08.03,87.83-185.77,287.79-607.38,173.67-368.61-155.12-172.24c-38.74-43.01-74.91-83.86-117.72-125.41l2047.63.54c59.62.02,114.77,14.11,167.18,35.03,49.96,19.94,91.97,51.96,119.74,97.9,31.06,51.38,46.8,109.32,46.88,170.57.13,113.03-26.57,223-80.23,320.83-118.31,219.18-319.37,267.49-554.23,278.03l441.58,556.16-481.23.68-221.22-269.9-231.83-283.11-189.53-.76-208.74-254.75Z"/>
    <path class="cls-1" d="M1767.51,1477.88l105.09-.02,356.48,431.84,100.06,121.52,633.26-.7-449.53-565.82c191.19-25.22,347.52-80.46,463.22-245.6,64.99-92.77,97.41-200.86,110.69-314.14,17.9-152.73-12.03-320.14-162.65-393.68-63.25-30.88-133.26-54.48-207.99-54.52l-2115.77-1.08c-27.99-24.75-45.12-50.45-74.94-80.28l2169.47.35c85.44.01,166.91,19.47,243.05,52.74,160.11,69.95,234.61,224.11,234.93,393.62.42,221.57-78.93,430.45-251.94,572.16-77.65,61.75-164.74,99.74-260.58,126.62l466.71,591.1-835.79.82-499.67-604.17c-8.91-10.77-18.39-14.51-24.08-30.74Z"/>
    <path class="cls-1" d="M1245.68,1527.2l-270.84,584.78-666.86.3c8.88-28.95,24.6-52.29,37.49-81.21h575.54s560.24-1207.33,560.24-1207.33l952.21.48c45.09,4.26,75.47,37.01,71.21,81.71l-972.26-.05-286.72,621.31Z"/>
  </g>
  <g>
    <path class="cls-1" d="M4893.35,1398.09c-81.27,60.52-178.7,88.16-278.85,88.42l-775.53,1.98,59.83-248.84,696.82.04c32.81-2.8,62.89-6.52,88.6-26.36,34.16-26.35,45.63-76.59,30.07-115.79-14.09-23.42-36.98-26.06-63.45-32.01l-712.57-.09,149.21-619.86,1041.04.46-182.37,250.04-612.87.25-36.04,142.45,455.6,2.17c120.67.57,261.79,58.29,282.56,192.83,20.97,135.87-27.93,279.32-142.05,364.31Z"/>
    <line class="cls-1" x1="3487.15" y1="1047.93" x2="3504.72" y2="975.43"/>
    <path class="cls-1" d="M3550.58,804.98c5.08-17.03,1.72-11.47,13.99-16.67l126.76-53.7c9.68-4.1,27.81,2.72,32.6-14.69-12.96-1.48-29.52-1.34-42.38.67l-67.86.38c-256.69-2.28,173.85,0-42.85-.86l-213.84-1.42,116.72-120.83,29.07-30.03,22.25-21.09,99.76-101.1,320.28.45-257.04,1042.19-311.6-.5,99.62-392.94"/>
    <path class="cls-1" d="M3691.33,734.61l30.64,10c12.85-2.01-.37-20.92,12.58-19.44-1.53-5.34-33.54,5.35-43.22,9.44Z"/>
  </g>
  <path class="cls-1" d="M4777.68,1920.85l-133.84-1.65,18.03-99.73,281.07,1.5-58.64,292.02-350.24-.14c-43.21-4.03-82.91-13.39-115.31-42.61-26.4-27.74-37.91-68-32.15-108.04,9.17-63.76,22.15-124.82,35.79-188.13,18.98-88.06,92.11-149.47,182.92-149.81l361.95-1.34-22.21,122.57-315.86.68c-34.12.07-60.72,24.01-67.92,56.65-10.02,45.47-18.84,89.73-26.31,135.98-4.31,26.67,11.79,51.25,38.9,51.21l191.23-.23c5.41-23.38,9.15-41.02,12.57-68.93Z"/>
  <path class="cls-1" d="M4321.32,1969.47c-24.64,107.39-116.62,144.65-219.11,143.91l-211.16-1.52c-35.65-.26-71.68-10.97-100.08-32.56-36.39-27.66-50.05-76-43.52-122,8.78-61.87,23.11-119.63,35.53-180.78,17.9-88.16,89.19-148.72,180.29-151.95,85.89-3.05,169.69-2.59,256.06-.29,41.71,1.11,85.3,17.35,111.62,48.76,27.42,32.73,32.18,77.95,25.73,119.71-9.31,60.26-21.79,117.59-35.36,176.71ZM4126.9,1988.84c31.21-.15,52.11-24.68,57.28-51.14l27.75-141.95c5.13-26.26-14.53-49.46-41.46-49.53l-179.14-.44c-29.62-.07-59.92,18.39-67.2,47.67-12.1,48.65-21.01,96.16-29.06,145.67-2.34,14.39,1.23,28.57,9.87,37.83,6.72,7.19,18.43,12.89,31.55,12.82l190.42-.92Z"/>
  <polygon class="cls-1" points="3699.2 1990.42 3674.96 2113.04 3233.67 2112.74 3343.29 1623.4 3485.07 1623.69 3406.46 1988.91 3699.2 1990.42"/>
</svg>