<?xml version="1.0" encoding="UTF-8"?>
<svg id="Camada_1" data-name="Camada 1" xmlns="http://www.w3.org/2000/svg" viewBox="0 0 2168.5 2354.2">
  <defs>
    <style>
      .cls-1 {
        fill: #fff;
      }
    </style>
  </defs>
  <path class="cls-1" d="M216.12,882.19l.8,5.54c-24.05-2.69-47.47-9.93-72.46-16.5-11.73-3.09-21.84-8.5-33.59-5.7.05-1.48-.82-3.09-.51-4.55,2.23-10.66-13.86-10.89,24.83-43.33-1.94-41.63-3.26-10.6,10.36-54.23,5.85-18.75,26.78-21.05,34.91-29.69,16.19-17.2,40.4-11.89,60.27-19.8,11.4-4.54,24.74-16.35,38.08-1.96,15.63,16.86,19.92-93.61,31.69-102.69-2.55,31.94-9.19,61.88-15.22,93.3-1.47,7.67-6.93,19.37-15.72,15.76-6.75-2.77-11.17-9-18.96-8.18-6.41.68-11.21,6-15.24,13.1-28.34-4.5-53.5,7.11-74.65,23.08-12.86,9.71-22.58,16.09-24.24,33.88-.75,7.97-12.56,17.73-6.22,29.03,9.34,16.63-22.69,20.83-25.23,41.74,15.27,12.92,32.59,16.01,50.34,19.71,17.76,3.71,33.75,11.57,50.76,11.49ZM120.44,861.67c0-.83-.67-1.51-1.51-1.51s-1.51.67-1.51,1.51.67,1.51,1.51,1.51,1.51-.67,1.51-1.51Z"/>
  <path class="cls-1" d="M313.96,560.41c7.21,9.35,6.53,28.38-2.03,38.58,3.71-20.13.29-34.95-9.7-49.01-3.99-5.61,3.14-19.65-10.38-24.76-19.95-7.54-9.39-42.48-7.04-45.15,4.36-4.95,11.82-10.55,20.46-5.15-5.43,4.46-14.67,2.37-17.23,10.44-12.24,38.61,19.32,34.66,19.48,52.87.08,8.95-.47,13.2,6.45,22.18Z"/>
  <path class="cls-1" d="M1850.77,715.96c-11.31-1.12-15.66-16.18-26.11-22.8l-64.75-40.97c-7.42-4.69-40.02-10.77-46.07,4.38-4.75,2.07-15.31-12.22-20.43-2.35-16.56,31.93,9.34,43.76,10.23,56.5l2.41,34.51c.76,10.9,6.15,21.41,3.8,32.77-2.63,12.65,1.27,21.14,6.72,31.82,3.48,6.83,1,16.46,6.82,23.32-13.22-1.36-7.44-13.49-11.3-20.49-17.75-32.22,1.43-25.22-11.73-65.65-3.54-10.87,3.33-24.3-1.97-34.55l-17.25-33.36c-2.91-5.62,7.33-13.74,4.65-21.27-2.28-6.39-8.49-6.95-14.3-7.36-5.11-.37-10.03,5.18-14.32,9.88-16.6,18.21-46.64,32.32-47.84,57.97-.74,15.98,6.72,30.83-.37,46.05-21.82,46.83,22.66,45.36,3.3,66.22-11.32,12.2-29.78,9.56-45.04,5.09-21.5-6.29-28.42,34.88-65.86,38.77-9.19.96-17.32,9.8-17.93,19.27-2.15,33.25-24.85,42.65-12.69,81.14,2.51,7.93-4.96,19.61,1.41,26.62,3.81,4.19,16.9-.18,19.83,6.41,3.61,8.12,4.23,15.71,12.14,18.12,8.41,2.57,19,2.44,24.82-4.72,7.03-8.63,13.18-2.95,18.71-3.95,14.41-2.62,25.82-19.08,23.47-32.59-.9-5.16-7.98-10.14-4.65-14.94,4.54-6.56,12.38-8.76,16.99-17.78,6.96,8.96,16.06,4.84,24.13,7.51,7.12,2.35,12.23,9.17,20.98,4.12,11.65-6.72,28.76-13.27,40.32-2.31-14.92,1.29-25.76-2.49-36.34,5.43-17.36,13.01-34.07-19.06-59.29,4.03-3.59,3.29,3.06,7.57,3.9,12.61,2.16,12.93-8.76,33.31-22.93,36.22-12.52,2.57-19.63,2.43-29.98,11.59-7.83,6.93-29.03.16-33.09-8.48-3.59-7.65-1.67-13.43-9.43-14.07-8.15-.67-11.73,3.27-14.8,11.47-2.35,6.3-13.46,5.89-16.92,12.15-5.05,9.15-7.91,18.74-15.85,26.16,7.48,4,18.36-.06,22.19,6.37,5.54,9.32-6.37,21.54-6.76,30.98-.76,18.51,9.91,37.07,4.51,56.15-3.12,11.04-8.99,25.55-1.12,36.5,24.28,33.75,7.2,19.08,8.93,49.31,14.91,2.02,53.86-26.6,61.26-35.93.47-.6,42.07-10.77,48.62-1.42-2.57,5.4-5.65,9.99-6.84,16.18-6.7-1.45-3.49-7.11-3.23-11.66-15.84-9.74-34.3-.73-47.34,11.48-8.34,7.8-18.98,13.37-28.33,19.69-8.19,5.53-18.77,4.56-28.24,12.5-5.89-15.18-2.58-8.27-19.44-22.44-.61-.51-15.8,15.91-17.63,20.33-5.46,13.16,8.54,17.29,3.41,29.47-4.64,11.04-12.01-5.09-25.88,18.68-12.55,21.49,17.19,33.04,4.84,45.69-2.85,2.92-6,4.68-7.73,7.23-2.91,4.29,2.77,7.33,3.46,11.53,1.4,8.53-.24,16.59.1,25.74-10.93,6.79-18.15,14.57-28.84,23.18-16.7-12.15-53.65-5.85-73.41.14-14.15,4.29-33.09.76-45.84,12.83-7.81,7.39-10.8,21.32-25.53,20,9.05-8.55,15.54-17.24,23.27-25.47,11.32-12.05,30.03-7.87,44.3-12.5,17.21-5.58,31.89-6.58,50.25-5.06,7.57.63,14.5-4.5,23.66,1.93,3.68,2.59,27.18-16.65,27.02-25.68-.17-9.2-.72-17.01-9.59-22.87,4.14-7.15,14.58-10.09,14.89-18.32.42-11.02-10.67-18.72-12.49-29.49,1.45-5.79,7.86-8.27,7.67-17.78-17.56,2.77-34.19,2.82-51.27-1.77-.2-8.14-1.29-17.75,3.43-23.85,5.87-7.6,17.22-5.1,25.63-5.74l20.49-1.55c2.81,8.8,1.01,16.57,2.71,29.45,5.73-4.35,14.07-4.34,20.72-7.77,8.81-4.55-3.11-14.32-2.5-19.81,3.99-36.4,15.95-17.04,17.41-39.32,11.54,2.26,13.17,9.41,22.46,13.85,25.7-44.05-26.84-9.83-3.49-91.1-10.35-6.16-19.68.19-32.53,5.37,1.57-12.24,16.58-10.84,27.21-15.15,9.36-8.6-8.02-27.23-.44-36.9,5.69-7.27,9.42-20.67,0-26.1-2.36-1.36-8.01-.56-10.13-.79-14.46-1.57,6.39-18.14,8.97-31.16,2.88-14.47,20.56-8.96,21.71-21.46.45-4.84-4.75-9.03-10.28-9.34-19.68-1.09-11.29-20.45-32.85-40.13-.93-.84.15-4.92.82-5.61,1.12-1.17,3.9.09,5.45.41l15.41,29.52c3.6,6.9,9.16,11.55,15.78,9.98.86,1.28,1.41,1.71,2.36,1.95,3.18.79,2.88-1.64,3.24-3.37,2.22-10.69.02-21.39-2.07-32.92-3.08-17,5.35-31.99,9.32-47.31l4.81-18.6c12.02-46.46,26.07-8.25,62.68-52.27,27.16-32.65,43.9,5.12,68.22-16.22,8.22-7.21.23-14.04-4.05-19.49-9.84-12.53-7.16-32.49-.06-45.6,8.39-15.5-.54-29.18.1-44.76.44-10.66,11.07-27.74,18.93-34.93,3.5-3.2,48.92-33.84,34.83-42.34-72.39,2.63-31.7-32.23-100.01-1.34-8.51,3.85-17,2.76-23.74,12.12-1.05,1.46-4.96,2.74-6.53,2.96-3.36.48-3.62-4.03-5.37-5.68-.42-2.97-.62-5.97-.59-8.97.73-5.73,8.65-8.77,12.43-13.18-5.69-28.3-12.91-42.4-40.88-48.03-7-11.09-22.78-10.72-37-12.21l-4.71,17.82c-.64,2.41-3.24,3.96-3.35,5.97-.13,2.43,2.76,4.05,4.96,4.66-6.5,13.79-13.48,27.72-19.23,43.31-2.92,7.91-2.04,18.28-7.98,24.49-6.76,7.06-12.88,16.31-11.63,25.88-14.75,6.38-17.69,27.55-31.42,36.13-8.82,5.51-16.9,7.7-23.86,16.94-3.91,5.19-14.59,6.97-10.66,15.69-3.23.44-7.28-1.45-9.58,2.08,4.29,1.96,7.18,1.12,9.69.63,6.78-1.33,13.44,3.53,21.06,3.91,33.49,1.68,18.05,44.68,23.52,62.83.15,4.29-3.53,10.31-2.26,14.91.42,1.53-1.14,4.67-1.51,6.2l-3.96,3.31c-2.74,2.29,1.24,4.4,1.65,6.3,1.03,4.71,4.59,7.78,6.63,11.92,2.59,5.24,6.51,9.43,11.51,12.33,1.45,2.63,1.14,8.3,3.44,10.14,3.52,2.82,8.48,1.9,12.86.03,18.56-7.9,24.63,27.92,24.54,26.73.57,7.39-11.59,2.39-16.65,2.21-8.31-.28-11.99,14.47-8.86,20.49-2.68,2.03-3.54,7.28-9.43,5.11.25-8.63,3.64-16.16,6.41-24.85,2.36-7.43,13.59-7.7,20.58-5.62.2-6.82-2.98-18.33-10.8-19.52-5.09-.77-12.76,6.16-18.15,3.52l-32.65-45.71c13.57-9.97,15-69.36,4.89-78.07-12.23-10.54-33.55-12.75-48.45-9.31,5.5,6.87,21.16,2.14,21.71,12.73,1.42,27.66-14.2,29.06-19.87,52.3-7.37,5.32-22.96.96-24.31,8.3l-3.73,20.38c-1.7,9.27-8.3,15.66-2.63,24.72,8.25,13.19-3.15,25.37-8.31,36.99-4.86,10.96-8.57,17.46-18.07,24.11-14.28,10-13.46,30.32-19.31,44.58-10.48,25.58-23.68,64.72-19.27,92.26,1.89,11.79-5.3,23.99.64,37.62,8.46-4.48,11.8-13.27,21.76-15.76,1.86,9.4-5.15,16.34-4.34,27.34,12.29,2.99,24.46,2.69,34.34,11.89,8.1-13.31,18.69-19.35,34.65-16.61,8.68,1.49,10.68,16.13,18.64,19.27,11.77,4.64,25.15,3.17,37.34,9.63,5.31-2.8,3.08-9.33,8.97-11.36,5.75,4.13-1.27,17.35-7.28,16.29-15.85-2.8-30.49-8.56-46.81-9.16-2.46-6.43-3.91-16.13-10.54-17.08-5.87-.84-13.8-.33-19.69.03-6.76,2.52-6.42,12.17-13.73,17.11-28.36-26.6-40.35.58-42.32-30.25-7.83,2.86-7.44,10.69-8.91,17.99-2.47,12.23-7.23,22.59-10.98,34.77-5.28,17.16-6.42,39.54-17.42,54.56-13.67,6.55-31.75,12.97-33.3,32.93-1.01,12.94-10.59,13.81-19.85,19.17-13.07,7.55-17.72,26.38-29.47,35.99-28.26,23.13-6.85,39.12-15.58,70.52,12.43-1.5,12.41,10.98,17.8,15.26,9.8,7.79,21.99,12.11,32.35,19.35,21.71,15.16,66.13,12.1,54.07,39.12-1.06,2.37-1.16,4.33-.84,5.68,3.27,13.61,8.05-9,31.03-1.71,25.8,8.19,45.34-11.03,54.93,17.12,1.13,3.31,7.75,4.26,10.01,5.9,3.91,2.85,5.68-6.17,9.51-6.72,14.01-1.99,27.64,1.31,40.82-4.2,7.82-3.27,15.35-4.82,23.8-.42,11.46,5.96,17.13,33.51,16.52,44.54-1.31,23.61,30.68,20.05,28.26,31.16-2.65,12.19-11.67,29.17-2.79,40.94,4.56,6.05,7.38,12.87,10.72,19.21,6.58,12.5,21.05-.76,28.81-3.52l22.03-7.85c19.27-6.86,38.93-10.9,58.35-17.14,8.22-2.64,15.26-11.8,24.93-2.76-9.58.69-16.12,3.93-24,8.27-9.31,5.13-20.58-.02-29.08,7.08,3.66,3.93,8.28-.98,12.83,2.07-32.06,12.35-6.3-12.39-62.23,16.55-8.42,4.36-28.51,15.19-34.91,2.72-16.04-31.22-23.99-17.97-10.51-65.37l-23.02-14.7c-13.17-8.42-3.04-46.6-17.99-55.99-6.34-3.99-13.48-2.77-20.64.21-24.26,10.11-33.26-7.21-46.9,17.81-33.32-13.35-15.12-22.64-26.85-27.15-12.69-4.87-26.45.52-39.02-1.78-8.91-1.63-13.81-3.31-20.88-.49-8.54,3.42-9.27,12.19-15.15,17.31-7.49,6.53-17.44,8.88-23.65,19-5.49,8.94-15.65,17.88-19.23,27.91-3.16,8.85-2.21,17.99-8.16,26.34-10.21,14.33-25.2,24.21-40.18,36.65,20.85,7.64,39.64-.93,58.04,4.73,24.46,7.52,47.81,14.37,73.24,12.2,27.09-2.32,34.36,61.22,32.77,57.77l12.83,27.86c1.74,9.01,57.18-5.51,33.21,16.94,7.48,1.34,13.95,3.99,21.65,8.25,5.44,3.01,5.62-9.08,8.5-10.03,8.47-2.82,14.82-9.48,21.24-14.5,9.45-7.39,22.07-11.55,29.72-21.6,7.05-9.26,17.94-8.44,26.58-13.31,11.28-6.36,20.27-13.7,35.47-5.38,23.08,12.64-7.22-18.31,44.41-23.42-28.17-25.09,31.11-18.08,15.58-37.89,5.02-2.38,6.08,3.39,8.74,5.14,4.09,2.7-5.14,7.97-4,11.66,3.15,10.24,13.58-.43,19.41-2.16,3.69-.22,7.11,5.57,9.9,6.78,4.34,1.87,10.99-5.35,14.61-5.41,11-.2,60.94,4.25,65.37-2.37,6.66-9.95,8.32-23.59,19.91-31.08,7.81-5.05,17.89-6.77,25.22-14.37,6.31-6.55.79-26.85-8.58-27.99-14.59-1.78-24.9-3.59-32.1-20.37-8.24,9.25-20.74,47.06-20.08,46.83l-12.08,4.19c-14.57,5.05-27.86,15.85-42.39,6.1,19.06.33,27.94-3.16,40.13-9.56,9.91-5.2,11.59-9.02,14.67-18.7,13.91-43.74,27.8-29.11,22.33-50.31-1.59-6.17,5.11-15.13,11.4-14.67,11.51.84,11.38-7.41,16.23-13.66,9.93-12.82,13.25-31.77,4.7-45.56,1.26-3.48,5.69-6.6,6.45-9.12,2.86-9.52-8.89-13.66-5.35-22.15,1.04-2.49,5.27-7.34,9.21-4.87.54,3.6-8.06,6.92-1.06,14.92,7.44,8.49,1.39,14.69-.72,21.94,1.41-4.87,1.06,33.08.96,35.64-10.57,5.92-10.53,20.4-18.03,27.44-3.74,3.51-19.68-1.99-18.51,9.07.82,7.71-.93,20.41,2.93,28.27,5.78,9.98,27.75,11.37,36.99,5.05,7.11-4.86,10.11-14.55,16.61-19.72,9.66-7.68,10.57-19.51,16.71-28.96l24.77-38.1c5.84-8.98-2.78-19.31-2.21-29.1.34-5.84,4.29-10.58,2.22-16.32-1.24-3.43-8-4.64-10.9-8.27-8.44-10.55-17.3-13.09-33.2-9.13,3.83-6.04,10.71-2.2,16.71-9.82-15.27-8.02-22.4-30.17-12.03-41.84l13.23-14.89c4.34-4.88,18.03-14.08,11.89-23.89-7.52-12.03-27.56-19.84-41.88-20.33-6.54-.22-14.16,10.39-20.29,3.72-6.25-6.79-7.96-19.5-16.32-25.47-12.69-9.07-29.73-6.16-43.41-11.9,1.78.75-29.06-20.43-33.15-17.93-2.93,1.79-4.86,5.64-7.49,10.46-7.41-1-12.83-6.27-20.62-10.22,7.17-6.16,11.61,3.41,16.88,1.97,4.44-1.21,5.55-8.63,10.91-8.16,9.46.82,35.49,17.55,38.99,19.33,12.41,6.3,29.1,3.77,40.85,11.16,9.16,5.77,11.46,18.95,17.89,27.06,21.85-15.01,62.42,10.57,64.28,17.84,4.04,15.79-13.97,28.91-26.27,43.71-8.91,10.72-2.7,24.49,6.21,32.89,9.41,8.87,13.88,20.72,29,24.41l19.59-31.51c9.1-14.63,8.49-33.02,10.7-51.15l3.35-27.46c2.36-19.32-2.5-40.92-.55-59.36,1.7-16.18,4.36-27.72-2.09-44.28-2.82-9.4,6.17-23.76,6.78-33.91,1.11-18.43,31.43,6.72,41.83-27.94,5.11-17.04,17.99-29.27,28.31-43.92l-15.55-4.55c-7.9-9.42-19.19-22.68-16.47-35.98.7-3.41,10.56-1.05,13.04-3.22,3.7-3.24,1.07-11.68,2.77-14.67,7.19-12.6-6.54-17.36-7.6-24-5.34-33.53-35.24-59.73-69.52-59.03-12.37.25-17.74,10.89-23.99,19.24-2.74,3.65-10.85.7-14.4,4.13-4.29,4.16-4.3,10.36-7.74,11.47-4.5,1.46-13.44,4.35-16.02-.09-4.53-7.77-1.78-19.43-8.08-27.04-5.14-6.21-14.64-3.33-22.1-6.49,5.04-9.32,13.38-14.13,21.53-19.3,26.92-17.1,1.46-34.32,14.85-55.85,4.07-6.54,3.1-13.62,6.94-21,9.38,9.75-3.41,17.44-1.97,26.3,2.9,17.84,35.46-15.57,61.42,16.97,6.51,8.17,14.34,2.97,19.45.16,8.34-4.59,10.5-9.9,9.09-20.58,18.13,8.75-9.12,19.2,11.65,24.86,4.33,1.18,10.13-.37,13.91-4.28,6.44-6.66,16.27-5.49,23.94-10.06,9.16-5.46,22.55-8.74,28.35,1.63-5.63,4.85-9.58,10.98-7.1,18.11,1.92,5.51,5.56,15.37,10.99,14.64,13.39-1.8,19.47-14.09,28.93-17.3,17.46-5.93,34.88-7.19,47.19-22.28,6.19-1.02,12.61,4.64,21.42,4.89-2.62-10.09-.47-17.84-.08-25.65.61-12.09-14.76-15.74-23.65-17.04-34.88-5.11-11.9,8.42-48.13-4.47-4.04,10.23-5.12,21.31-13.84,30.1-5.38-2.91-5.05-7.73-9.5-12.36-12.95,8.29-26.22,2.36-32.92-9.74,4.24-5.91,8.52-8.95,11.71-16.6-27.64-18.56-25.68,38.58-59.16,5.01,1.3,35.36-19.15,13.35-3.77,40.68-6.36,2.72-15.01-11.39-11.54-15.08,6.93-7.39,7.27-17.22,11.62-24.8,7.25-12.63,19.77-20.09,24.99-35.1,2.02-5.82,8.84-9.44,9.83-17.88,1.3-11.14,13.26-18.57,19.82-25.99l-11.52-10.45c5.8-3,35.5,18.45,44.54,19.09l51.08,3.6c6.28.44,19.42,9.09,20.63,15.36,2.52,13.03,25.19,76.35,24.43,71.7,1.34,8.28-3.56,57.03-4.28,59.16-7.69,22.61-14.03,48.62-27.44,68-11.21,16.2-22.82,33.83-37.9,46.45l-22.61,18.91c-17.04,14.25-59.82,78.44-66.52,97.72-4.37,12.57-21.74,12.92-33.78,12.77-20.96,61.19,2.32,18.29-6.56,79.36-2.52,17.31,7.08,37.38,2.9,55.23l-9.65,41.13c-3.58,15.26-7.55,28.72-3.57,43.83-42.9,36.21-17.92,77.95-24.22,87.41l-23.85,35.83c-9.46,14.21-12.63,28.46-26.07,40.95-5.14,4.78-12.61,16.46-13.87,23.22-1.37,7.35,6,13.21,1.59,20.29-12.71,20.42-38.61,8.12-47.66,52.31-23.13,6.39-45.99.83-69.02,3.39-9.48,1.05-17.8,7.71-28.46,2.05-4.95-2.63-12.18,5.47-15.7,3.9-7.49-3.33-16.52-10.31-22.76-1.92,4.49,3.09,12.5,3.91,11.27,7.21-5.64,15.26-25.64,7.32-34.19,18.04-2.14,2.68-.58,6.99-1.04,11.31-.51,4.74-5.72,6.76-8.97,7.97-3.48,1.3-8.7-1.7-11.17-3.52-13.86-10.18-21.27-.38-31.02,4.7-9.84,5.13-23.53,3.42-31.31,15.54-3.08,4.8-39.29,27.42-44.26,33.13-8.02,9.22-13.18,18.58-23.11,25.65-32.37,23.05-11.62,86.25-11.64,86.42l-3.65,33.55c-.68,6.28.37,15.85-4.22,20.45-16.93,16.96-37.9,28.39-51.86,48.5-3.83,5.53-8.18,19.02-13.99,21.18-7.76-4.54,11.64-18.83,7.46-25.56-2.78-4.48-8.42-2.05-15.64-1.4.77-12.79,8.92-24.46,17.68-35.35-8.45-2.37-17.57,1.59-21.52-9.09,7.5,3.03,17.55,1.12,24.92,4.98,11.67,6.11-14.59,18.14-9.77,28.57,1.46,3.16,9.14,7.36,13.03,3.9,15.7-13.95,32.69-26.43,46.75-41.99,6.31-11.66.72-27.97,5.48-40.06,1.36-3.45,4.97-6.54,3.56-8.24l-5.9-7.1c-4.72-5.69-1.89-54.09-4.18-55.35-17.09-9.45-13.88,16.63-60.27,3.81-9.32-2.58-40.82,1.2-54.96,12.43-4.4,3.49-4.56,19.78-13.45,17.56-25.46-6.37-49.79-12.21-76.64-15.12-8.6-.93-23-12.11-31.25-3.3-7.04,7.52-2.93,26.93-.62,36.02,80.86,3.35,54.69,6.62,109.11,22.08,13.69,3.89,21.2,19.54,30.91,28.23,6.07,5.44,12.87,7.99,16.16,13.91-34.81-7.04-17.68-30.13-66.59-42.8-11.02-2.85-20.28-11.05-32.38-12.5-18.14-2.17-36.78.25-54.32-3.4-36.44-7.57-101.77,51.83-95.73,42.24l-8.28,13.13c3.03-4.8-40.44,34.2-53.45,52.45-9.03,12.68-26.65,19.81-33.92,34.51,5.23,7.25,16.65,4.61,21.6-2.05,3.03-4.08,16.8-6.01,19.48-1.69,6,9.68,10.8,15.69,21.79,19.42,9.23,3.13,7.29,23.19,16.54,26.61,5.8,2.14,9.05-7.27,15.11-8.72,10.46-2.51,5.58,14.32,33.16,22.61,14.83,4.45,22.15,20.59,35.27,27.15,8.66,4.34,18.43,2.55,20.15,15.57,1.79,13.59,16.22,20.06,30.14,18.48-2.25,9.9-12.47,3.18-18.14,5.61-12.9,5.53-6.18,21.7-2.6,31.47,2.02,5.51-.09,20.04,8.92,19.85,47.54-31.64,30.8-34.66,46.9-66.56,5.74-11.38,7.99-26.18,24.21-27.64,13.99-1.26,26.06-9.76,30.07-23.92,2.61-9.21,9.06-9.95,13.75-13.88-.2,6.12-5.73,9.36-9.04,17.58,14.69-7.68,33.26-20.42,27.05-40.78-5.21,11.23-3.59,22.5-18.01,23.2,7.58-6.36,9.33-17.5,12.89-26.53.96-2.44,10.67-5.74,5.09-9.25-65.65,13.63-15.04,25.74-61.48,56.33-6.74,4.44-8.01,19.66-21.85,13.66,9.16-2.48,12.23-13.65,18.12-17.48,41.75-27.18.34-38.52,48.22-53.53,8-2.51,13.67-7.84,22.33-4.68,2.52,3.91,1.15,8.58,3.97,14.51,6.93-4.98,9.64-12.59,9.66-22.01-.36-5.24,3.22-7.98,5.19-2.28.87,9.57-1.23,20.06-9.14,27.67s-8.37,36.32-75.88,73.61c-20.7,11.44-25.31,29.57-31.35,49.81-1.85,6.2-32.58,43.05-46.34,36.56-2.93-1.38-5.87-7.29-6.83-11.3l-6.34-26.54c-3.5-14.64,5.21-40.18-12.81-48.89-7.87-3.8-14.97-3.45-21.28-12.47-8.67-12.39-23.01-20.09-37.5-22.59-5.64-5.7-7.63-12.87-15.35-17.1-5.77,5.27-11.71,10.84-18.49,7.88-12.66-5.52-7.07-25.19-23.56-30.52-15.49-5-10.73-23.28-27.26-16.5-2.27.93-3.6,5.46-6.9,7.43-8.97,5.36-23.09.85-28.47-7.08,9.89-17.36,27.94-25.27,39.28-39.55,6.86-8.63,9.67-16.2,19.92-22.3,2.04-1.22,50.53-48.8,36.67-39.07,25.45-17.86,52.34-32.56,79.39-48.97,4.3-2.61,12.1,1.46,13.91-3.88,3.32-9.83,3.51-34.99-7.55-53.16-13.41-22.04-21-5.78-29.93-14.87-1.69-1.72-2.73-8.23-.65-10.89,14.86-19,19.32-56.91,2.14-66.52-16.89-9.45-26.72,13.21-44.3.67-5.93-4.23-2.91-11.53-5.03-18.49-13.85-45.5.02-52.05-33.48-63.51-8.81-3.01-12.25-3.08-21.15-.43-10.19,3.03-22.06-1.15-32.55,4.06-3.6,1.79-7.18-4.95-5.51-3.63,4.65-2.34,11.81-3.82,18.24-4.51l32.37-3.46c8.33-.89,19.16,5.49,26.91,8.82,4.85,3.18,12.18,15.05,12.83,20.92-.82,8.4,9.79,54.98,11.36,55.86,17.25,9.6,25.98-19.41,51.99,6.29,10.86-7.14,6.97-19.36,12.24-27.71,5.13-8.14,10.88-14.45,14.45-25.7,7.13,13.39-5.1,19.9-8.91,29.18l-12.93,31.53c-5.76,14.04,1.3,31.46-6.08,46.16-2,3.98-9.38,10.85-5.68,16.13,4.27,5.91,14.74,1.63,21.22,5.07,6.27,6.7,7.9,25.28,18.94,27.77l34.36,7.76c24.82,5.61,49.83,5.42,74.6,15.16,6.09-7.15,6.79-13.29,10.7-21.14,35.53-6.4,9.75-9.9,56.76-11.05,7.68-.19,14.99,8.95,22.6,6.39l28.18-9.49c5.78-1.95,11.94-.47,16.69-4.48,3.54-2.99,2.37-9.74,4.8-15.54,1.68-4.03,15.8-3.03,15.68-10.52-.15-9.26-15.82-9.05-23.43-10.41.37-6.07,4.77-7.95,5.81-12.48-6.6-4.08-37.38,4.16-38.25-6.44-.91-11.06-10.3-18.8-12.06-28.77-3.17-17.98-3-39.57-20.84-51.41-9.34-6.2-25.23-.53-36.14-3.35l-49.78-12.89c-19.68-5.09-41.27,1.33-61.77-4.11-8.92,4.12-11.79,14.25-24.03,13.02,17.65-19.94,72.93-43.17,73.47-74.72.16-9.58,2.89-10.78,8.1-17.72,11.02-14.66,20.34-31.87,39.6-40.09l-.2-37.22c-19.72-7.03-37.95-14.19-55.91-23.17l-31.55-15.78c.75-19.62-42.96-26.91-44.16-27.85-6.3-4.95,4.47-21.52-2.95-28.86-12.44,7.29-23.94,9.77-37.86,8.93-10.71-.64-22.14,5.73-32.91,1.29-12.99-5.35-25.15-18.49-40.33-17.48-42.51,2.83-33.21,20.97-62.17,26.62-8.1-2.08-10.91-13.65-21.15-12.7-.21,14.56,9.12,21.19,12.33,33.11-19.15,21.51-2.39,43.03-12.75,47.64-9.13,4.06-10.4,10.8-13.55,17.28-4.17,8.58,4.71,15.01,6.09,21.16-16.49,20.84,7.19,43.03,8.31,53.6.63,5.89-4.48,8.51-6.5,15.11-2.31,7.59-2.3,25.59,4.74,29.67,6.42,3.72,16.4,2.42,15.08,11.76l-21.55-8.42c-13.06-47.04,3.4-33.92,2.77-48.1-.27-6.18-6.01-9.28-8.23-15.03-3.4-8.79-3.28-18.16-10.13-25.26l10.55-13.59c-21.74-12,8.16-45.25,8.62-46.91,3.9-14.06-.82-29.43,10.22-41.19l-14.65-29.65c-4.48-9.08-19.26-11.42-23.35-21.42-4.92-12.03-2.84-24.51.98-38.59-16.88,2.25-32.97-4.6-49.31-1.12-14.97,3.19-34.85,3.73-37.68-15.37-2.37-16-5.09-31.25-16.22-45.37,29.1-15.08-8.1-25.96,1.77-49.23,3.07-7.24-.96-15.45-8.94-16.7-8.95-1.4-16.21-7.24-25.9-7.72-12.36-.62-29.44,4.19-40.03-4.1-9.49-7.43-15.96-16.89-30.27-16.08-9.15.51-16.77-5.48-22.2-12.42-5.55-7.09-15.58-4.29-22.09-8.51-34.63-22.49-31.73,13.23-59.09-24.74-8.06-11.19-23.69-16.63-27.76-29.67,3.74-4.03,33.86,27.66,35.5,30.25,5.78,9.13,15.26,16.42,26.47,11.7,12.37-5.21,18.27,3.44,27.61,7.22,12.38,5,22.69,5.2,31.73,17.55,5.01,6.85,21.61,1.94,27.72,7.67,30.93,28.98,39.22,5.77,74.23,21.97,13.69-4.25,17.99-18.21,26.6-28.15,11.59-13.38,19.62-30.48,10.77-48.36-11.37-22.98,2.77-24.71-1.26-35.82-1.75-4.83-36.05-10.67-28.04-11.05l-44.08,2.08c-6.73-28.92-7.87-74.16-4.64-105.51-3.03-6.09-13.55.51-17.68.21-12.62-7.92-27.5-18.39-39.84-29.11-9.58-8.32-22.93-20.65-36.11-7.76-7.94,7.77-19.19,16.17-25.37,25.73-5.02,7.76-6.44,14.65-18.2,14.79-9.09.11-21.93,4.48-25.49,13.55-4.18,10.67-12.37,6.32-18.55,8.78-14.28,5.7-23.54,7.62-38.57,1.9-9.59-3.65-25.67,10.59-24.13,21.53,15.53-11.7,52.55-9.68,57.4-7.53,11.42,5.05-4.21,25.67,2.94,52.67,2.65,10.01.18,20.47,1.5,29.65-1.26,23.84-10.19-51-9.28-42.56-1.29-11.93,7.36-22.59,2.12-35.91-11.19,3.29-24.33-2.79-35.44,2.11-8.62,3.81-19,5.72-26.57,10-13.67,7.73-25.24,15.62-39.72,21.56-3.42,1.4-3.18,10.16-6.12,10.94-4.37,1.17-11.12-2.45-15.71-.26-11.16,5.31-21.07,23.96-35.79,22.34-21.32-6.19-44.72-13.32-68.1-5.64-6.91,2.27-11.47,6.22-17.01,1.33-5.17-4.56-8.67-8.95-8.1-17.04l3.63-51.94-30.54,17.99c-19.15,11.28-32.16-3.17-43.99-.6-15.51-44.31-39.64-23.55-43.42-30.07-1.38-2.39-5.68-6.61-2.74-10.23,15.56-19.13-9.28-16.54-21.07-53.65l5.1-.79c17.24,41.53,30.07,26.33,27.56,57.55-2.28-.76-5.14-1.68,0,0,46.21,12.54,20.8,22.81,45.91,32.46,36.12,13.89,41.2-13.62,73.02-27.94-2.69,25.6-12.88,49.76-6.19,75.38,2.3,8.79,16.62,3.04,22.66,1.48-.93,2.99,2.64,3.23,4.47,2.23s5.14-2.62,2.84-4.7c13.04,3.12,28.49-.74,41.8,4.75,27.21,11.24,29.07-6.39,47.05-19.86,11.93,2.93,15.9-3.32,22.94-8.68,9.85-7.5,24.33-8.72,31.91-18.96,2.21-1.86,8.1-1.05,9.03-6.07-3.86-1.75-6.94-.05-9.11-1.2-8.88-4.73-15.64-11.73-25.89-16.49l-142.05-65.94-43.9-16.95c12.83-1.36,24.87,2.42,36.69,7.94l158.34,73.91c12.18,5.69,22.94,13.23,36.26.53,8.27-7.89,19.78-12.37,32.02-6.28,10.37,5.17,19.59-2.42,27.94-6.27,3.7-1.71,11.52,3.18,14.05-3.41,3.64-9.47,12.46-13.18,21.26-13.77,14.12-.95,16.67-8.78,23.32-17.22,8.06-10.22,18.82-18.51,28.53-28.22,6.19-6.19,26.41-3.84,31.86,2.41,6.42,7.37,36.69,32.01,47.77,33.25,29.95,3.34,58.39.73,88.55.28l80-1.19c7.56-13.08,5.74-27.12,6.19-41.62.39-12.47,11.73-23.12,10.94-35.34-.47-7.23-14.99-13.11-13.58-22.26,3.78-24.53,20.4-43.78,31.73-65.62,10.73-20.68,17.97-42.25,26.97-64,12.99-31.41,29.3-59.64,46.15-89.06-8.18-2.48-12.8-.38-19.49,0-1.5-7.73-11.94-7.77-15.65-12.42-7.94-9.96-15.07-18.52-30.14-16.53-15.99,2.11-32.48-7.66-37.33-23.66-2.97-9.79-13.04-11.82-17.19-18.77-7.78-13.05-3.56-33.49-14.64-44.73-6.52-6.61-20.3,1.94-27.56,1.02-16.62-2.11-22.11,7.11-28.31,20.18-4.49,9.46-12.17,16.15-13.93,28.16-.77,5.27-13.52,6.03-18.08,5.16-5.09-.97-9.07-7.92-14.39-12.46-6.91-5.89-14.42,2.18-19.05,5.03-10.11,6.22-3.1,31.3-7.46,34.02-12.38,7.73-46.9-23.71-46.46-33.25l1.1-24.21-7.12-58.82-19.32-39.58c-3.51-7.2-3.66-14.37-10.76-17.07-12.61-4.8-37.37,8.24-34.6,6.02-2.14,1.72,1.22,8.42-1.37,11.3-15.06,16.8-48.6,22.48-65.73,42.95-2.09,2.49-2.03,5.46-4.87,5.45-5.91-.03-4.16-12.3-11.93-13.04-13.96-1.33-5.91,10.09-26.96,11.33-7.44.44-10.56-5.99-15.69-12.21-6.23-7.55-17.74-6.29-25-13.95,11.44-18.01-17.63-37.09-14.41-35.91-6.67-2.45-9.8,8.37-19.01,13.21-3.98,2.09-9.1-1.71-13.28-3.59-.91,11.5-61.76,5.72-74.06,4.69-8.43-.71-10.79,12.06-10.81,17.2-.02,6.48,1.88,17.73,11.11,18.62,4.55.44,9.91-5.19,14.13-2.34,9.31,6.31,9.54,20.38,5.09,24.87-1.74,1.76-8.3,2.76-6.93-2.03s4.84-8.58,3.65-12.08c-3.3-9.7-19.54-3.02-28.11-9.02-3.43-2.4-10.45-27.2,3.68-37.97,7.26-5.53,14.44-3.89,23.84-1.96,14.59,3,29.65.31,44.82.94,5.9.24,7.47-9,11.79-9.36,4.64-.39,8.64,8.52,14.69,5.05s11.19-13.64,18.45-13.7c36.65,27.27,17.07,36.52,24.65,42.77,5.9,4.86,15.31,4.04,19.42,10.72,16.92,27.49,22.5-8.29,48.67.44,12.04,4.01,14.34-5.11,20.68-8.59,17.92-9.82,53.11-14.86,47.52-38.26,11.7-2.2,24.67-5.47,33.56-14.92-13.59-3.23-32.83,2.98-37.95-11.04-3.48-9.54-5.85-25.36-6.18-35.06-.27-7.73,10.75-12.84,7.23-21.04-9.36-21.83-25.65-14.07-24.18-27.19.62-5.51,6.17-8.35,11.25-9.13,12.74-1.93,18.23,4.44,26.3,11.31,10.31,8.77,26.39,5.87,38.55,10.6,6.81,2.65,10.25,11.24,19.78,9.65,2.32-5.75.92-11.39,1.53-16.83,11.82-6.47,27.78.19,37.95-6.42l26.86-17.46c16.82-1.13,30.27-7.55,34.03-25.14-3.54-4.16-6.47-6.53-6.31-13.35,11.62,5.28,23.92,1.08,34.66,2.53,13.41,1.81,8.17,20.92,10.52,28.21,4.34,5.4,24.99,33.55,24.53,37.72-2.12,19.23-15.74-1.68-22.26,55.45-1.38,12.05,5.51,17.95,8.41,26.74,4.32,13.08,6.67,22.29,18.23,31.77,7.81,6.41,13.22,13.29,25.06,14.89,3.13.42,5.31,6.85,9.79,5.74,3.26-.81,5.68-7.36,8.12-8.43l24.12-10.65c11.11-4.9,19.1-6.92,28.52-10.85,19.24-8.03,41.35,3.22,62.4-2.95,1.24-6.3-3.58-10.29-5.23-15.46l10.94-15.58c19.05,17.74,42.45-13.86,59.26,1.04,8.03,7.11,19.6,21.87,32.34,15.74,30.72-14.79,37.55,4.71,51.8.02,15.73-5.17,23.09-38.82,38.24-58.35,11.1-14.31,23.15-26.24,31.6-44.21,46.26,11.74,14.11,55.37,44.53,89.53,1.25,19.2,15.04,34.38,34.5,35.99,6.78,7.73,10.83,28.36,4.92,36.94-24.88,13.78-43.63,32.08-54.71,58.97-2.73,6.37-18.35,6.34-18.17,15.51,3.4,1.25,6.71,1.7,8.58,2.77,7.95,4.55-9.51,22.39-5.76,23.91,7.34.2,11.37.76,16.42,2.32,4.33,1.34,3.89,6.36,7.32,14.11-.16-7.3,10.16-7.58,12-11.41,4.67-9.7-6.17-20.28-17.35-22.63,7.41-8.8,16.99-2,23.95-7.83,3.93-3.29,2.19-11.64,6.28-14.45,5.26-3.62,13.5,1.95,19-.75,22.49-11.05,70.8-6.41,76.85,11.06,6.28,18.13-29.85,33.34-28.37,48.38,20.18-1.04,39.77-40.25,57.91-39.24,66.26,3.69,28.39-1.4,67.7,16.28,8.51,3.83,15.45,11.75,26.06,10.66,13.04-1.33,21.41,8.95,31.41,12.49,17.63,6.25,27.1,14.08,34.62,32.39,3.51,8.56,12.07,15.85-.28,28.77,20.64,6.61,28.94-13.73,68.2-15.03,13.66,16.87,36.51,12.36,54.24,16.6,14.19,3.39,22.91,15.14,42.41,9.34,14.79-4.4,39.37-8.75,54.61-2.14,18.63,8.09,91.92,51.1,96.64,71.54ZM833.46,464.7c6.33,9.97-.21,21.8,2.39,33.32,2.37,10.53,3.66,26.22,9.21,35.5,4.78,7.99,14.01,10.99,17.15,21.66,4.78,16.26,19.96,24.12,35.62,22.04,14.39-1.91,21.88,6.61,30.09,15.51,4.25,4.61,13.6,7.23,19.3,10.4,7.46,4.14,20.72-11.92,26.47-8.98,3.97,2.03,4.75,7.56,1.24,10.84-32.15,30.1-63.88,118.72-83.34,162.27-9.42,21.07-31.94,40.07-28.46,65.26,10.21,12.59,10.88,31.93,21.87,52.25,7.62,14.07,9.15,28.88,12.96,42.55,46.71,48.7,36.07,32.24,111.78,39.11,48.87,4.43,95.93,5.6,144.67,6.99,30.19.86,58.43-.45,87.55,8.93,4.01,1.29,9.88-.27,12.48-2.81,1.95-1.9,3.5-6.38,3.91-9.82,2.09-17.86,16.93-23.13,24.1-36l16.39-29.41c3.74-6.71.59-17.19-2.6-21.68-8.46-11.9-.16-16.98,5.28-26.26,3.04-5.19-1.75-13.77,3.48-18.6,4.18-3.86,10.3-6.5,18.18-7.24,8.33-.79,32.79-48.61,21.52-52.28-4.43-4.86-17.03-.86-21.28-10.1,7.77-7.25,16.02-17.36,24.08-24.6l19.21-17.26c16.66-14.96,1.84,18.06,39.82-45.86l17.91-30.15c6.01-10.12,5.37-25.1,13.72-34.47s-1.51-18.85,0-25.02c1.84-7.5,12.54-12.09,11.13-21.69-2.77-18.76-37.33-26.98-56.74-27.66-12.42-.43-21.36-3.3-32.02,6.47-8.17,7.49-15.47,18.94-25.72,24.6-12.68,7-24.5,15.87-33.33,27.11-15.24-2.6-12-6.03-24.67,7.56-6.86.49-9.62-6.86-16.26-7.98-8.02,4.69-15.39,7.99-22.85,4.24-14.83-7.48-13.85-27.41-22.17-39.5-5.75-8.36-32.98,10.41-34.46,12.97-5.03,8.65-18.97,12.05-24.57,3.47,2.53-7.84,10.47-7.8,14.23-15.7-22.02-2.27-34.73-14.74-33.08-36.64-15.77-7.84-26.38-23.8-27.49-40.94-.76-11.83-5.8-17.23-11.58-25.91-9.48-14.24-18.84-23.33-35.45-30.16-8.44-3.47-16.47-14.34-29.48-11.41-4.76-11.55,3.73-24.7-3.25-35.53-4.82-7.48-20.96-2.81-27.25.73-19.97,11.24-26-4.85-30.84,6.7-2.98,7.13,11.02,25.44,1.11,25.09l-57.16-2.07c-9.07-.33-13.14,7.29-19.47,8.91-14.98,3.83-26.47,3.34-46.89,20.89-5.75,4.94-17.48,4.48-15.92,15.25-3.96,1.32-4.65-2.49-4.95-4.42s3.88-8.33,2.46-9.55c-12.91-11.09-28.01-20.39-38.32-34.82-3.71-5.19-1.6-14.51-5.42-18.66-17.71-19.23-10.93-66.21,13.26-83.42-15.69-38.51-31.86-27.22-31.61-36.73.12-4.7,7.85-8.4,5.95-13.15-1.36-3.38-1.67-12.31-6.37-13.01-7.28-1.1-14.12,1.69-20.69,2.4,11.58,7.8-19.76,29.54-14.77,28.26l-23.76,6.09c-3.52.9-26.49,28.82-39.68,14.32-5.14,2.86-12.77,2.97-18.24,6.99-5.01,3.68-1.93,13.16-5.5,16.69-10.68,7-17.31-2.28-25.8-6.32-12.81-6.1-29.93-3.23-41.51-12.67-7.58-6.18-17.34-17.04-27.91-3.43,15.15,4.46,28.5,17.76,23.65,32.09-3.57,10.56-9.11,17.04-3.82,30.22,2.26,5.63-1.65,15.3,5.35,18.99,16.09,8.49,22.33-1.69,37.06,3.35-6.52,11.36,7.46,14.41,9.95,19.81l25.08,54.44,9.49,64.2c1.37,9.3.98,16.55,2.37,25.05,2.2,13.37,20.54,21.22,31.71,25.29,4.2-10.57-1.77-20.9,3.88-29.07,4.25-6.14,14.26-11.1,21.57-13.37,11.59-3.6,15.88,17.76,28.22,14.74,8.62-2.11.78-5.54,19.44-28.56,14.95-18.45-10.41-22.77,65.08-29.82,3.42-7.47-5.57-20.91,3.27-20.83ZM1143.44,532.27c.13,9.3,3.71,18.24,11.1,22.18,5.06,2.69,16.78,7.85,21.53,2.7,1.35-24.25,18.52-34.93,34.63-48.28,4.94-4.1,22.45-41.84,43.35-49.58,9.97-3.69,15.15-10.67,14.28-19.72-3.6-37.29-21.85,5.63-42.04-54.93-.96-2.88-19.92-30.74-15.48-41.8,4.52-11.25-8.45-51-21.3-42.06l-29.04,37.9-30.66,53.85c-2.89,5.08-16.98,11.44-22.32,8.92-14.62-6.89-27.18-10.23-41.31-.7-6.58,4.44-16.48-4.64-24.11-4.62-5.29.01-6.95,15.39-1.81,16.87,17.45,5.01,36.12,20.69,55.41,28.83-2.68,13.26,12.86,18.26,16.82,24.93,4.7,61.54,30.68,46.01,30.95,65.51ZM1254.91,586.56c31.02-4.59,40.34-.48,65.35-30.42,6.61-7.92,22.19-15.46,19.89-27.29-2.63-13.5-48.25-19.14-69.48-7.54-4.81,2.63-14.03-3.67-18.03,1.83-2.79,3.84-.55,11.77-4.57,12.84l-12.34,3.28c11.78,2.51,11.64,24.22,10.83,24.92-2.52,2.16-4.94,2.39-9.7,7.06,5.18,3.82,9.59,16.59,18.05,15.34ZM1176.29,571.97c9.23-4.02,9.26-12.1,7.16-19.59-1.54,6.82-8.95,10.11-7.16,19.59ZM1163.77,577.82c5.24,4.84,10.36,1.67,11.49-4.08-3.67,3.22-6.54,2.57-11.49,4.08ZM1254.73,594.39c-5.29-3.09-8.63-3.61-11.64-6.81-4.5-6.17-8.08-11.56-16.23-14.57,2.5,11.44,5.88,26.2,17.16,26.67,3.91.16,7.87-.97,10.71-5.29ZM1531.78,643.1c0-1.06-.86-1.91-1.91-1.91s-1.91.86-1.91,1.91.86,1.91,1.91,1.91,1.91-.86,1.91-1.91ZM1913.23,835.46c6.01-9.78,1.54-18.21,7.45-20.66,11.42-4.73-.48,7.5,41.65,1.67,6.95-.96,13.03,6.81,24.63,1.92-6.42-6.47-2.87-16.45-6.29-23.86-8.79-19.04-3.89-35.93-27.42-39.77-17.82-2.9-35.7,1.98-52.64-3.49-9.1-2.94-17.81-11.78-28.18-5.53-11.6,6.98-14.14,18.9-19.26,29.93-3.33,7.18-10.73,11.93-12.29,21.21-.98,5.84-10.91,8.22-11.35,15.1-.39,6.12,6.37,8.73,10.82,8.55,3.55-.14,7.48-1.45,10.39-6.33,6.25-10.46,23.23-17.26,33.12-8.34,5.95,5.37-3.04,13.92-5.59,18.66-3.34,6.19,5.97,13.33,11.16,10.98,8.71-3.94,16.1-.63,23.81-.04ZM1955.08,973.22c9.84-9.86,19.63-18.81,19.47-35.51-17.25-1.83-26.89-9.11-36.21,5.56-3.24-5.75.27-9.87,3.11-11.88,9.73-6.88,19.55,1.99,36.25.46,7.11-13.43,28.78-58.02,7.48-63.89-7.24-2-11.48,2.19-16.34,7.59-9.76,10.84-26.42,6.84-38.37,13.15-3.64,1.92-36.87,30.83-39.83,19.81-8.43-31.47-11.75,10.61-7.49-43.18l-35.24,15.3c-8.98,3.9-15.05,9.5-25.17,3.27-3.47-2.14-8.22-2.36-11.93-1.46-2.85.69-5.21,6.92-8.88,9.62-6.42-2.83-15.02-8.19-20.14-13.89-21.73-24.22-31.5-.76-58.76-10.91.68,14.93,8.13,30.24-1.69,38.28l-24.6,20.13c30.33,7.56,12.31,11.93,27.36,34.38,7.05,1.53,8.67-9.16,11.98-12.25,4.17-3.91,12.01-1.47,16.11-5.77,5.64-5.92,9.51-14.77,18.06-16.92,47.73-12.02,61.21,38.03,79.17,17.88,3.67-4.12,7.47-7.53,12.3-7.42s9.5,2.15,13.49,6.16c20.62,20.72,30.87,2.73,53.86,11.25-78.37,21.68-41.7-38.52-88.54,3.42,22.01,14.53,28.31,23.38,50.38,23.93.91,10.37,32.89,29.36,33.95,29.47,2.06.21,27.95-34.28,30.23-36.56ZM1008.7,1356.18c10.87,4.05,21.94-2.03,32.64-1.81,14.66.3,27.06-1.61,40.81-10.55,5.88,11.33,3.81,20.26,2.18,32.39,59.14,14.82-2.25-24.16,41.81-62.32,12.11-10.49,17.85-28.3,30.23-37.65,31.28-1.62,5.31-37.76,54.42-51.63,8.7-23.37,11.78-46.75,21.06-67.97,6.55-14.96,4.02-25.11,1.67-40.44-5.35-34.89,3.29-67.3,6.12-94,1.28-12.05,11.12-19.75,13.9-34.62-14.96-.86-27.82-2.75-41.29-5.46-23.21-4.68-46.11-1.65-69.82-3-44.64-2.55-87.47-2.76-132.04-7.8-21.74-2.46-47.28-4.93-68.3-1.92-42.57-18.14-13.94-13.62-50.9-37.81-.84-40.95-9.36-24.54-17.62-64.2-18.85,16.53-3.07,43.25-16.68,66.39l-151.24,4.52c-8.4,1.51-3.53,91.91,1.39,97,29.01,13.49,12.2-8.13,53.85,5.16,7.59,2.42,25,4.11,20.1,17.77-3.92,10.93-5.62,18.27.51,29.46,10.05,18.38-.27,39-12.6,53.09-6.5,7.42-10.66,16.27-15.78,24.28-3.15,4.92,6.47,11.39,7.26,15.65,1.07,5.77-5.88,11.02-4.05,16.74,5.63,17.62,20.85,36.98,2.72,44.62,14.39,14.59,4.33,57.72,30.65,52.91,17.47-3.19,33.46-1.04,51-.67,8.94.19,18.34-3.68,23.73,6.76-13.79,11.71-12.7,30.76-.21,42.21,8.1,7.42,15.45,11.12,27.44,8.38,5.15,3.84,9.05,12.15,15.44,12.49,13.32.71,19.03-14.99,29.56-18.5,48.81-16.28,43-.29,72.05,10.54ZM1881.84,1052.25l29.67-32.32c2.19-2.39,4.15-5.4,3.73-7.4-.39-1.89-2.47-6.37-5.15-6.88-11.25-2.11-14.95-14.07-22.98-18.47-10.87-5.95-25.24-6.04-35.11-16.26-8.26,6.01.52,18.12,8.91,21.14,3.01,13.41.48,27.27-3,40.26-4.97,1.09-8.07.6-13.48,3.02,3.62,8.94,6.93,18.76,14.43,24.68,8.66,6.83,16.55-.77,22.98-7.77ZM1353.7,1280.36c10.71,1.6,19.96,2.81,29.51.89,7.45-1.5,8.71-21.4,2.86-21.37l-20.46.12c-6.78.04-13.73,1.3-14.74,6-.82,3.83-3.33,13.42,2.82,14.35Z"/>
</svg>